<svg width="17" height="17" viewBox="0 0 17 17" fill="none" xmlns="http://www.w3.org/2000/svg">
<circle cx="8.36686" cy="8.21238" r="7.89304" fill="#F53838"/>
<path d="M8.36677 0.319336C4.00749 0.319336 0.473694 3.85313 0.473694 8.21241C0.473694 12.5717 4.00749 16.1055 8.36677 16.1055C12.726 16.1055 16.2598 12.5717 16.2598 8.21241C16.2598 3.85313 12.726 0.319336 8.36677 0.319336ZM10.2364 5.77378H9.05001C8.90942 5.77378 8.7532 5.95877 8.7532 6.20461V7.06134H10.2373L10.0128 8.28312H8.7532V11.9509H7.353V8.28312H6.08271V7.06134H7.353V6.34274C7.353 5.3117 8.06831 4.47389 9.05001 4.47389H10.2364V5.77378Z" fill="white"/>
</svg>
