<svg width="69" height="79" viewBox="0 0 69 79" fill="none" xmlns="http://www.w3.org/2000/svg">
<path fill-rule="evenodd" clip-rule="evenodd" d="M24.8859 19.6424C25.1945 18.9726 25.5559 18.4523 25.7947 18.1779C25.7994 18.825 25.6997 19.4054 25.5453 19.9099C26.0206 20.1391 26.5145 20.4602 26.9864 20.9032C26.6228 20.8921 25.9953 20.8041 25.2939 20.5756C24.9706 21.2884 24.562 21.7806 24.2941 22.0098C24.3122 21.4099 24.4385 20.8349 24.6158 20.3163C24.1148 20.0942 23.6071 19.7965 23.1546 19.4025C23.5046 19.3615 24.1433 19.3957 24.8859 19.6424Z" fill="url(#paint0_linear_740_553)"/>
<path fill-rule="evenodd" clip-rule="evenodd" d="M22.4471 12.9322C22.6525 12.4864 22.8931 12.1401 23.052 11.9574C23.0552 12.3881 22.9888 12.7745 22.886 13.1102C23.2024 13.2628 23.5312 13.4765 23.8453 13.7714C23.6033 13.7641 23.1855 13.7055 22.7187 13.5534C22.5035 14.0279 22.2315 14.3555 22.0532 14.508C22.0652 14.1087 22.1493 13.726 22.2673 13.3807C21.9338 13.2329 21.596 13.0348 21.2947 12.7725C21.5277 12.7452 21.9528 12.768 22.4471 12.9322Z" fill="url(#paint1_linear_740_553)"/>
<path fill-rule="evenodd" clip-rule="evenodd" d="M15.8464 6.26166C16.155 5.59185 16.5164 5.07154 16.7552 4.7972C16.7599 5.44426 16.6602 6.02467 16.5058 6.52912C16.981 6.75836 17.475 7.07938 17.9469 7.52236C17.5832 7.51136 16.9557 7.42327 16.2544 7.19481C15.9311 7.90769 15.5225 8.3999 15.2546 8.62905C15.2727 8.02911 15.3989 7.45413 15.5763 6.93547C15.0753 6.71344 14.5676 6.4157 14.115 6.02171C14.4651 5.98068 15.1038 6.01495 15.8464 6.26166Z" fill="url(#paint2_linear_740_553)"/>
<path fill-rule="evenodd" clip-rule="evenodd" d="M14.8006 21.2799C15.2546 20.2944 15.7864 19.5288 16.1378 19.1251C16.1447 20.0773 15.9979 20.9313 15.7706 21.6736C16.4696 22.0108 17.1959 22.483 17.8899 23.1344C17.3551 23.1182 16.4323 22.9887 15.4008 22.6528C14.9252 23.7015 14.3241 24.4256 13.93 24.7627C13.9567 23.8802 14.1423 23.0344 14.4032 22.2714C13.6657 21.9447 12.9185 21.5065 12.2523 20.9266C12.7675 20.8662 13.7076 20.9167 14.8006 21.2799Z" fill="url(#paint3_linear_740_553)"/>
<circle cx="17.531" cy="14.535" r="0.397721" transform="rotate(21.3865 17.531 14.535)" fill="#2F235A"/>
<circle cx="27.3787" cy="9.53417" r="0.397721" transform="rotate(21.3865 27.3787 9.53417)" fill="#FE9076"/>
<circle cx="8.47512" cy="11.7068" r="0.397721" transform="rotate(21.3865 8.47512 11.7068)" fill="#FFA400"/>
<circle cx="17.0156" cy="27.7209" r="0.397721" transform="rotate(21.3865 17.0156 27.7209)" fill="#23BB86"/>
<path d="M27.077 7.63321C26.69 6.15538 25.2934 2.77553 22.8024 1.07874" stroke="#FE9076" stroke-width="0.346178" stroke-linecap="round"/>
<path d="M7.30152 10.1023C6.33872 8.91629 3.67074 6.41512 0.701307 5.89876" stroke="#FFA400" stroke-width="0.346178" stroke-linecap="round"/>
<path d="M15.3236 28.299C14.4704 28.6101 12.3224 29.6017 10.5566 31.0785" stroke="#23BB86" stroke-width="0.346178" stroke-linecap="round"/>
<path fill-rule="evenodd" clip-rule="evenodd" d="M44.5952 19.6424C44.2867 18.9726 43.9253 18.4523 43.6864 18.1779C43.6818 18.825 43.7815 19.4054 43.9359 19.9099C43.4606 20.1391 42.9667 20.4601 42.4948 20.9031C42.8584 20.8921 43.4859 20.804 44.1873 20.5755C44.5105 21.2884 44.9192 21.7806 45.1871 22.0098C45.1689 21.4098 45.0427 20.8349 44.8654 20.3162C45.3664 20.0942 45.874 19.7964 46.3266 19.4025C45.9765 19.3614 45.3379 19.3957 44.5952 19.6424Z" fill="url(#paint4_linear_740_553)"/>
<path fill-rule="evenodd" clip-rule="evenodd" d="M47.0341 12.932C46.8288 12.4861 46.5882 12.1398 46.4292 11.9572C46.4261 12.3879 46.4925 12.7742 46.5953 13.11C46.2789 13.2626 45.9501 13.4763 45.6359 13.7712C45.878 13.7638 46.2957 13.7052 46.7626 13.5531C46.9778 14.0276 47.2498 14.3553 47.4281 14.5078C47.416 14.1085 47.332 13.7257 47.2139 13.3805C47.5474 13.2327 47.8853 13.0345 48.1865 12.7723C47.9535 12.745 47.5284 12.7678 47.0341 12.932Z" fill="url(#paint5_linear_740_553)"/>
<path fill-rule="evenodd" clip-rule="evenodd" d="M53.6358 6.26154C53.3272 5.59173 52.9658 5.07142 52.727 4.79707C52.7223 5.44413 52.822 6.02455 52.9764 6.529C52.5011 6.75824 52.0072 7.07926 51.5353 7.52224C51.8989 7.51124 52.5264 7.42315 53.2278 7.19469C53.5511 7.90757 53.9597 8.39978 54.2276 8.62893C54.2095 8.02899 54.0832 7.45401 53.9059 6.93535C54.4069 6.71332 54.9146 6.41558 55.3671 6.02159C55.0171 5.98055 54.3784 6.01483 53.6358 6.26154Z" fill="url(#paint6_linear_740_553)"/>
<path fill-rule="evenodd" clip-rule="evenodd" d="M54.6815 21.2799C54.2275 20.2944 53.6958 19.5288 53.3444 19.1251C53.3375 20.0772 53.4842 20.9313 53.7115 21.6736C53.0125 22.0108 52.2862 22.483 51.5922 23.1344C52.127 23.1182 53.0499 22.9887 54.0813 22.6528C54.5569 23.7015 55.1581 24.4255 55.5522 24.7627C55.5255 23.8801 55.3398 23.0343 55.079 22.2714C55.8164 21.9447 56.5636 21.5065 57.2298 20.9266C56.7146 20.8662 55.7746 20.9167 54.6815 21.2799Z" fill="url(#paint7_linear_740_553)"/>
<circle r="0.397721" transform="matrix(-0.931142 0.364658 0.364658 0.931142 51.9504 14.5349)" fill="#2F235A"/>
<circle r="0.397721" transform="matrix(-0.931142 0.364658 0.364658 0.931142 42.1026 9.53416)" fill="#FE9076"/>
<circle r="0.397721" transform="matrix(-0.931142 0.364658 0.364658 0.931142 61.0062 11.7067)" fill="#FFA400"/>
<circle r="0.397721" transform="matrix(-0.931142 0.364658 0.364658 0.931142 52.4657 27.7208)" fill="#23BB86"/>
<path d="M42.4048 7.63321C42.7918 6.15538 44.1884 2.77553 46.6794 1.07874" stroke="#FE9076" stroke-width="0.346178" stroke-linecap="round"/>
<path d="M62.1798 10.1022C63.1426 8.91617 65.8106 6.415 68.78 5.89864" stroke="#FFA400" stroke-width="0.346178" stroke-linecap="round"/>
<path d="M54.1582 28.2988C55.0114 28.61 57.1594 29.6016 58.9252 31.0784" stroke="#23BB86" stroke-width="0.346178" stroke-linecap="round"/>
<rect x="13.3809" y="49.5948" width="42.2141" height="29.181" fill="url(#paint8_linear_740_553)"/>
<mask id="mask0_740_553" style="mask-type:alpha" maskUnits="userSpaceOnUse" x="13" y="49" width="43" height="30">
<rect x="13.3809" y="49.5948" width="42.2141" height="29.181" fill="#C4C4C4"/>
</mask>
<g mask="url(#mask0_740_553)">
<path d="M15.3778 48.8518L44.1227 48.8518L37.6257 60.133L8.8808 60.133L15.3778 48.8518Z" fill="black" fill-opacity="0.07"/>
<rect x="42.0877" y="49.5948" width="42.2141" height="29.181" fill="url(#paint9_linear_740_553)"/>
</g>
<path d="M13.3434 49.5949L42.0883 49.5948L36.5356 58.861L7.79077 58.861L13.3434 49.5949Z" fill="url(#paint10_linear_740_553)"/>
<mask id="mask1_740_553" style="mask-type:alpha" maskUnits="userSpaceOnUse" x="42" y="49" width="14" height="30">
<rect x="42.0883" y="49.5948" width="13.5065" height="29.181" fill="#C4C4C4"/>
</mask>
<g mask="url(#mask1_740_553)">
<path d="M53.9503 49.5464L40.4227 49.5464L46.779 60.2146L60.3067 60.2146L53.9503 49.5464Z" fill="black" fill-opacity="0.07"/>
</g>
<path d="M55.6158 49.5949L42.0882 49.5948L47.6408 58.861L61.1685 58.861L55.6158 49.5949Z" fill="url(#paint11_linear_740_553)"/>
<circle cx="28.345" cy="41.5147" r="3.98921" fill="url(#paint12_linear_740_553)"/>
<circle cx="40.7484" cy="36.1823" r="3.85479" fill="url(#paint13_linear_740_553)"/>
<circle cx="32.3344" cy="26.3601" r="3.10851" fill="url(#paint14_linear_740_553)"/>
<circle cx="42.8631" cy="25.8911" r="0.775212" fill="#FFA800" fill-opacity="0.23"/>
<circle cx="37.6688" cy="43.5112" r="0.775212" fill="#FFA800" fill-opacity="0.23"/>
<circle cx="24.9394" cy="31.5523" r="0.775212" fill="#FFA800" fill-opacity="0.23"/>
<path d="M55.6942 49.7329H13.347L6.84351 9.63428H63.5035L55.6942 49.7329Z" fill="url(#paint15_linear_740_553)"/>
<defs>
<linearGradient id="paint0_linear_740_553" x1="25.6776" y1="18.6025" x2="24.2686" y2="22.2003" gradientUnits="userSpaceOnUse">
<stop stop-color="#FFE89E"/>
<stop offset="1" stop-color="#FFBF1A"/>
</linearGradient>
<linearGradient id="paint1_linear_740_553" x1="22.9742" y1="12.2401" x2="22.0363" y2="14.6349" gradientUnits="userSpaceOnUse">
<stop stop-color="#FFE89E"/>
<stop offset="1" stop-color="#FFBF1A"/>
</linearGradient>
<linearGradient id="paint2_linear_740_553" x1="16.6381" y1="5.22174" x2="15.2291" y2="8.8196" gradientUnits="userSpaceOnUse">
<stop stop-color="#FFE89E"/>
<stop offset="1" stop-color="#FFBF1A"/>
</linearGradient>
<linearGradient id="paint3_linear_740_553" x1="15.9645" y1="19.7493" x2="13.8915" y2="25.0426" gradientUnits="userSpaceOnUse">
<stop stop-color="#FFE89E"/>
<stop offset="1" stop-color="#FFBF1A"/>
</linearGradient>
<linearGradient id="paint4_linear_740_553" x1="43.8036" y1="18.6025" x2="45.2126" y2="22.2003" gradientUnits="userSpaceOnUse">
<stop stop-color="#FFE89E"/>
<stop offset="1" stop-color="#FFBF1A"/>
</linearGradient>
<linearGradient id="paint5_linear_740_553" x1="46.5071" y1="12.2398" x2="47.445" y2="14.6347" gradientUnits="userSpaceOnUse">
<stop stop-color="#FFE89E"/>
<stop offset="1" stop-color="#FFBF1A"/>
</linearGradient>
<linearGradient id="paint6_linear_740_553" x1="52.8441" y1="5.22161" x2="54.2531" y2="8.81948" gradientUnits="userSpaceOnUse">
<stop stop-color="#FFE89E"/>
<stop offset="1" stop-color="#FFBF1A"/>
</linearGradient>
<linearGradient id="paint7_linear_740_553" x1="53.5176" y1="19.7493" x2="55.5906" y2="25.0426" gradientUnits="userSpaceOnUse">
<stop stop-color="#FFE89E"/>
<stop offset="1" stop-color="#FFBF1A"/>
</linearGradient>
<linearGradient id="paint8_linear_740_553" x1="27.4824" y1="44.1923" x2="10.6578" y2="90.532" gradientUnits="userSpaceOnUse">
<stop stop-color="#FFD481"/>
<stop offset="1" stop-color="#FA620C"/>
</linearGradient>
<linearGradient id="paint9_linear_740_553" x1="20.5828" y1="47.744" x2="71.6435" y2="102.309" gradientUnits="userSpaceOnUse">
<stop stop-color="#FFD481"/>
<stop offset="0.83311" stop-color="#FA620C"/>
</linearGradient>
<linearGradient id="paint10_linear_740_553" x1="13.935" y1="46.2831" x2="12.5689" y2="66.0264" gradientUnits="userSpaceOnUse">
<stop stop-color="#FFD481"/>
<stop offset="1" stop-color="#FA620C"/>
</linearGradient>
<linearGradient id="paint11_linear_740_553" x1="57.7503" y1="46.2831" x2="60.1801" y2="65.8187" gradientUnits="userSpaceOnUse">
<stop stop-color="#FFD481"/>
<stop offset="1" stop-color="#FA620C"/>
</linearGradient>
<linearGradient id="paint12_linear_740_553" x1="28.6471" y1="36.2089" x2="27.8883" y2="46.9768" gradientUnits="userSpaceOnUse">
<stop stop-color="#FF9F81"/>
<stop offset="1" stop-color="#F53838"/>
</linearGradient>
<linearGradient id="paint13_linear_740_553" x1="41.0403" y1="31.0553" x2="40.3071" y2="41.4603" gradientUnits="userSpaceOnUse">
<stop stop-color="#FF9F81"/>
<stop offset="1" stop-color="#F53838"/>
</linearGradient>
<linearGradient id="paint14_linear_740_553" x1="32.5698" y1="22.2257" x2="31.9785" y2="30.6163" gradientUnits="userSpaceOnUse">
<stop stop-color="#FF9F81"/>
<stop offset="1" stop-color="#F53838"/>
</linearGradient>
<linearGradient id="paint15_linear_740_553" x1="34.7079" y1="9.63428" x2="34.7079" y2="94.8249" gradientUnits="userSpaceOnUse">
<stop stop-color="white" stop-opacity="0"/>
<stop offset="1" stop-color="#FE9277"/>
</linearGradient>
</defs>
</svg>
