<svg width="12" height="12" viewBox="0 0 12 12" fill="none" xmlns="http://www.w3.org/2000/svg">
<g clip-path="url(#clip0_740_22)">
<path d="M5.68507 0.975586C3.09445 0.975586 0.986816 3.08322 0.986816 5.67384C0.986816 8.26446 3.09445 10.3721 5.68507 10.3721C8.27569 10.3721 10.3833 8.26446 10.3833 5.67384C10.3833 3.08322 8.27569 0.975586 5.68507 0.975586ZM4.74589 7.74718L3.33381 6.33814C3.15022 6.15495 3.14985 5.85764 3.33298 5.67399V5.67399C3.51622 5.49023 3.81376 5.48989 3.99743 5.67323L4.74495 6.41946L6.90004 4.26437C7.08349 4.08092 7.38093 4.08091 7.56438 4.26437V4.26437C7.74783 4.44782 7.74783 4.74525 7.56438 4.9287L4.74589 7.74718Z" fill="#2FAB73"/>
</g>
<defs>
<clipPath id="clip0_740_22">
<rect width="11.2758" height="11.2758" fill="white" transform="translate(0.0467529 0.0360107)"/>
</clipPath>
</defs>
</svg>
