<svg width="12" height="12" viewBox="0 0 12 12" fill="none" xmlns="http://www.w3.org/2000/svg">
<path d="M9.88801 1.97644H2.3708C2.12159 1.97644 1.88259 2.07544 1.70637 2.25166C1.53015 2.42788 1.43115 2.66688 1.43115 2.91609V4.79539C1.43115 5.04461 1.53015 5.28361 1.70637 5.45983C1.88259 5.63605 2.12159 5.73505 2.3708 5.73505H9.88801C10.1372 5.73505 10.3762 5.63605 10.5524 5.45983C10.7287 5.28361 10.8277 5.04461 10.8277 4.79539V2.91609C10.8277 2.66688 10.7287 2.42788 10.5524 2.25166C10.3762 2.07544 10.1372 1.97644 9.88801 1.97644ZM7.53889 3.85574C7.53889 4.11522 7.32854 4.32557 7.06906 4.32557V4.32557C6.80958 4.32557 6.59923 4.11522 6.59923 3.85574V3.85574C6.59923 3.59627 6.80958 3.38592 7.06906 3.38592V3.38592C7.32854 3.38592 7.53889 3.59627 7.53889 3.85574V3.85574ZM9.41819 3.85574C9.41819 4.11522 9.20784 4.32557 8.94836 4.32557V4.32557C8.68889 4.32557 8.47854 4.11522 8.47854 3.85574V3.85574C8.47854 3.59627 8.68889 3.38592 8.94836 3.38592V3.38592C9.20784 3.38592 9.41819 3.59627 9.41819 3.85574V3.85574ZM9.88801 6.6747H2.3708C2.12159 6.6747 1.88259 6.7737 1.70637 6.94991C1.53015 7.12613 1.43115 7.36514 1.43115 7.61435V9.49365C1.43115 9.74286 1.53015 9.98187 1.70637 10.1581C1.88259 10.3343 2.12159 10.4333 2.3708 10.4333H9.88801C10.1372 10.4333 10.3762 10.3343 10.5524 10.1581C10.7287 9.98187 10.8277 9.74286 10.8277 9.49365V7.61435C10.8277 7.36514 10.7287 7.12613 10.5524 6.94991C10.3762 6.7737 10.1372 6.6747 9.88801 6.6747ZM7.53889 8.554C7.53889 8.81348 7.32854 9.02382 7.06906 9.02382V9.02382C6.80958 9.02382 6.59923 8.81348 6.59923 8.554V8.554C6.59923 8.29452 6.80958 8.08417 7.06906 8.08417V8.08417C7.32854 8.08417 7.53889 8.29452 7.53889 8.554V8.554ZM9.41819 8.554C9.41819 8.81348 9.20784 9.02382 8.94836 9.02382V9.02382C8.68889 9.02382 8.47854 8.81348 8.47854 8.554V8.554C8.47854 8.29452 8.68889 8.08417 8.94836 8.08417V8.08417C9.20784 8.08417 9.41819 8.29452 9.41819 8.554V8.554Z" fill="#F53838"/>
</svg>
