<svg width="12" height="12" viewBox="0 0 12 12" fill="none" xmlns="http://www.w3.org/2000/svg">
<path fill-rule="evenodd" clip-rule="evenodd" d="M6.14832 5.64117C6.5969 5.64117 7.02711 5.46297 7.3443 5.14578C7.66149 4.82858 7.83969 4.39838 7.83969 3.9498C7.83969 3.50122 7.66149 3.07101 7.3443 2.75381C7.02711 2.43662 6.5969 2.25842 6.14832 2.25842C5.69974 2.25842 5.26953 2.43662 4.95234 2.75381C4.63514 3.07101 4.45695 3.50122 4.45695 3.9498C4.45695 4.39838 4.63514 4.82858 4.95234 5.14578C5.26953 5.46297 5.69974 5.64117 6.14832 5.64117ZM3.75157 10.7153C2.89565 10.7153 2.17465 9.99578 2.50219 9.20501V9.20501C2.70053 8.72619 2.99123 8.29113 3.3577 7.92466C3.72417 7.55819 4.15923 7.26749 4.63804 7.06916C5.11686 6.87083 5.63005 6.76875 6.14832 6.76875C6.66658 6.76875 7.17978 6.87083 7.65859 7.06916C8.13741 7.26749 8.57247 7.55819 8.93894 7.92466C9.30541 8.29113 9.59611 8.72619 9.79444 9.20501V9.20501C10.122 9.99578 9.40099 10.7153 8.54506 10.7153H3.75157Z" fill="#F53838"/>
</svg>
