<svg width="12" height="12" viewBox="0 0 12 12" fill="none" xmlns="http://www.w3.org/2000/svg">
<path d="M9.49443 4.79537C9.49443 4.36348 9.40936 3.93582 9.24409 3.53681C9.07881 3.1378 8.83656 2.77524 8.53117 2.46985C8.22578 2.16446 7.86322 1.92221 7.46421 1.75694C7.0652 1.59166 6.63754 1.50659 6.20565 1.50659C5.77376 1.50659 5.3461 1.59166 4.94709 1.75694C4.54807 1.92221 4.18552 2.16446 3.88013 2.46985C3.57474 2.77524 3.33249 3.1378 3.16721 3.53681C3.00194 3.93582 2.91687 4.36348 2.91687 4.79537C2.91687 5.44702 3.1095 6.0531 3.43603 6.56427H3.43227C4.54106 8.30027 6.20565 10.9031 6.20565 10.9031L8.97903 6.56427H8.97574C9.31421 6.03635 9.49422 5.42247 9.49443 4.79537V4.79537ZM6.20565 6.20485C5.83183 6.20485 5.47333 6.05635 5.209 5.79202C4.94467 5.52769 4.79617 5.16919 4.79617 4.79537C4.79617 4.42156 4.94467 4.06305 5.209 3.79872C5.47333 3.53439 5.83183 3.38589 6.20565 3.38589C6.57947 3.38589 6.93797 3.53439 7.2023 3.79872C7.46663 4.06305 7.61513 4.42156 7.61513 4.79537C7.61513 5.16919 7.46663 5.52769 7.2023 5.79202C6.93797 6.05635 6.57947 6.20485 6.20565 6.20485Z" fill="#F53838"/>
</svg>
