<svg width="17" height="17" viewBox="0 0 17 17" fill="none" xmlns="http://www.w3.org/2000/svg">
<circle cx="8.73234" cy="8.21238" r="7.89304" fill="#F53838"/>
<path d="M11.1988 8.21241C11.1988 8.86659 10.939 9.49397 10.4764 9.95655C10.0138 10.4191 9.38642 10.679 8.73225 10.679C8.07807 10.679 7.45068 10.4191 6.98811 9.95655C6.52553 9.49397 6.26566 8.86659 6.26566 8.21241C6.26566 8.07181 6.28046 7.93451 6.30595 7.80131H5.44346V11.0876C5.44346 11.3162 5.62846 11.5012 5.85703 11.5012H11.6083C11.7178 11.501 11.8228 11.4573 11.9002 11.3798C11.9776 11.3022 12.021 11.1972 12.021 11.0876V7.80131H11.1585C11.184 7.93451 11.1988 8.07181 11.1988 8.21241V8.21241ZM8.73225 9.8568C8.94824 9.85674 9.16212 9.81415 9.36165 9.73144C9.56119 9.64873 9.74248 9.52753 9.89518 9.37476C10.0479 9.22198 10.169 9.04063 10.2516 8.84106C10.3342 8.64148 10.3767 8.42758 10.3766 8.21159C10.3766 7.99559 10.334 7.78172 10.2513 7.58218C10.1686 7.38264 10.0474 7.20135 9.89459 7.04866C9.74182 6.89596 9.56047 6.77485 9.36089 6.69224C9.16132 6.60963 8.94742 6.56714 8.73142 6.5672C8.29519 6.56731 7.87688 6.7407 7.56849 7.04924C7.26011 7.35778 7.08692 7.77618 7.08703 8.21241C7.08714 8.64864 7.26054 9.06696 7.56907 9.37534C7.87761 9.68372 8.29602 9.85691 8.73225 9.8568V9.8568ZM10.7055 6.4858H11.6913C11.7568 6.4858 11.8196 6.45984 11.866 6.4136C11.9124 6.36737 11.9386 6.30463 11.9388 6.23914V5.25333C11.9388 5.18769 11.9127 5.12474 11.8663 5.07833C11.8199 5.03192 11.757 5.00585 11.6913 5.00585H10.7055C10.6399 5.00585 10.5769 5.03192 10.5305 5.07833C10.4841 5.12474 10.458 5.18769 10.458 5.25333V6.23914C10.4589 6.3748 10.5699 6.4858 10.7055 6.4858V6.4858ZM8.73225 0.319336C6.63887 0.319336 4.63124 1.15092 3.151 2.63116C1.67076 4.1114 0.839172 6.11904 0.839172 8.21241C0.839172 10.3058 1.67076 12.3134 3.151 13.7937C4.63124 15.2739 6.63887 16.1055 8.73225 16.1055C9.76878 16.1055 10.7952 15.9013 11.7528 15.5047C12.7104 15.108 13.5806 14.5266 14.3135 13.7937C15.0464 13.0607 15.6278 12.1906 16.0245 11.233C16.4212 10.2753 16.6253 9.24894 16.6253 8.21241C16.6253 7.17588 16.4212 6.14949 16.0245 5.19186C15.6278 4.23423 15.0464 3.3641 14.3135 2.63116C13.5806 1.89822 12.7104 1.31682 11.7528 0.92016C10.7952 0.523496 9.76878 0.319336 8.73225 0.319336V0.319336ZM12.8432 11.4099C12.8432 11.9123 12.4321 12.3234 11.9298 12.3234H5.53473C5.03237 12.3234 4.62127 11.9123 4.62127 11.4099V5.01489C4.62127 4.51253 5.03237 4.10143 5.53473 4.10143H11.9298C12.4321 4.10143 12.8432 4.51253 12.8432 5.01489V11.4099V11.4099Z" fill="white"/>
</svg>
