<svg width="17" height="17" viewBox="0 0 17 17" fill="none" xmlns="http://www.w3.org/2000/svg">
<circle cx="8.5496" cy="8.21238" r="7.89304" fill="#F53838"/>
<path d="M8.54951 0.319336C4.19023 0.319336 0.656433 3.85313 0.656433 8.21241C0.656433 12.5717 4.19023 16.1055 8.54951 16.1055C12.9088 16.1055 16.4426 12.5717 16.4426 8.21241C16.4426 3.85313 12.9088 0.319336 8.54951 0.319336ZM11.7602 6.78508C11.7635 6.8525 11.7643 6.91992 11.7643 6.98569C11.7643 9.04118 10.2013 11.4099 7.3417 11.4099C6.49673 11.4113 5.66933 11.1686 4.95898 10.7111C5.07984 10.7259 5.20399 10.7316 5.32979 10.7316C6.05825 10.7316 6.72834 10.4841 7.2603 10.0665C6.93613 10.0601 6.62201 9.95275 6.36174 9.75938C6.10146 9.56602 5.908 9.29627 5.80831 8.98774C6.04112 9.03201 6.28095 9.02273 6.50964 8.96061C6.15778 8.88945 5.84136 8.6988 5.61403 8.42097C5.3867 8.14314 5.26246 7.79524 5.26237 7.43626V7.41735C5.47203 7.53328 5.71211 7.60398 5.96699 7.61221C5.63712 7.39262 5.40361 7.05531 5.3142 6.66926C5.2248 6.28321 5.28626 5.87758 5.48601 5.53534C5.87651 6.0155 6.3635 6.4083 6.91545 6.68831C7.4674 6.96832 8.07199 7.1293 8.6901 7.16082C8.61152 6.82726 8.64534 6.47709 8.78631 6.16474C8.92727 5.85238 9.16748 5.59535 9.4696 5.43361C9.77172 5.27186 10.1188 5.21446 10.4569 5.27032C10.795 5.32619 11.1052 5.4922 11.3392 5.74253C11.6871 5.6737 12.0208 5.54607 12.3258 5.36515C12.2099 5.72538 11.9671 6.03127 11.6426 6.22598C11.9508 6.18886 12.2517 6.10601 12.5355 5.98015C12.3271 6.2925 12.0645 6.56509 11.7602 6.78508V6.78508Z" fill="white"/>
</svg>
